<?xml version="1.0" encoding="UTF-8"?><svg id="Layer_2" xmlns="http://www.w3.org/2000/svg" viewBox="0 0 1400 247.98"><g id="Layer_1-2"><g><path d="M354.19,91.87v24.07h48.82v24.58h-48.82v40.13h-28.25V66.96h84.93v24.91h-56.68Z"/><path d="M465.03,66.96v113.69h-28.25V66.96h28.25Z"/><path d="M568.84,180.65l-21.57-32.94h-21.57v32.94h-28.26V66.96h49.66c28.26,0,47.15,15.38,47.15,39.96,0,14.88-7.19,26.92-19.23,33.94l26.75,39.79h-32.94Zm-43.14-58.35h20.9c10.87,0,19.39-6.02,19.39-15.38s-8.52-15.05-19.39-15.05h-20.9v30.43Z"/><path d="M713.42,102.24h-28.42c-1.5-8.53-6.69-14.38-18.73-14.38-10.03,0-16.55,3.85-16.55,11.2,0,6.52,4.68,9.36,13.71,11.2l15.88,3.34c20.9,4.35,34.28,12.87,34.28,32.43,0,22.74-18.73,36.78-47.15,36.78-25.58,0-48.65-12.2-51.33-40.29h28.42c1.84,10.03,10.36,16.39,23.74,16.39,10.03,0,16.05-3.85,16.05-10.2,0-4.01-2.17-8.19-12.04-10.03l-18.73-4.01c-22.4-4.85-32.94-15.05-32.94-33.1,0-22.74,18.39-36.78,45.14-36.78,18.39,0,45.81,6.85,48.65,37.45Z"/><path d="M830.72,92.2h-36.28v88.44h-28.09V92.2h-36.28v-25.25h100.65v25.25Z"/><path d="M1019.28,180.65h-28.26v-57.01l-25.24,38.95v.17h-15.72v-.17l-25.41-39.29,.16,57.35h-28.25V66.96h21.07l40.29,60.69,40.29-60.69h21.06v113.69Z"/><path d="M1161.69,123.8c0,33.1-25.91,59.02-60.19,59.02s-60.19-25.91-60.19-59.02,25.91-59.02,60.19-59.02,60.19,25.91,60.19,59.02Zm-28.59,0c0-17.89-13.21-32.6-31.6-32.6s-31.6,14.71-31.6,32.6,13.21,32.6,31.6,32.6,31.6-14.71,31.6-32.6Z"/><path d="M1290.72,123.47c0,33.77-25.58,57.18-61.35,57.18h-45.65V66.96h45.65c35.78,0,61.35,23.24,61.35,56.51Zm-28.59,0c0-17.55-14.21-31.1-32.77-31.1h-17.39v62.86h17.39c18.55,0,32.77-13.71,32.77-31.76Z"/><path d="M1342.32,91.54v20.73h50.49v24.07h-50.49v19.73h57.68v24.58h-85.94V66.96h85.94v24.58h-57.68Z"/><g><path d="M241.42,24.45l-17.83-17.83-21.27,21.27C180.96,10.46,153.7,0,123.99,0,55.51,0,0,55.51,0,123.99H25.24c0-54.54,44.21-98.75,98.75-98.75,22.74,0,43.66,7.7,60.36,20.62l-26.89,26.89c-3.79-2.48-7.85-4.57-12.16-6.17h0c-.9-.34-1.81-.65-2.73-.94-.19-.06-.39-.11-.58-.17-.72-.22-1.44-.43-2.17-.63-.33-.09-.66-.17-.99-.25-.6-.15-1.21-.3-1.82-.43-.38-.08-.76-.16-1.14-.23-.58-.11-1.16-.22-1.75-.32-.39-.07-.79-.13-1.18-.19-.6-.09-1.2-.16-1.8-.23-.38-.04-.77-.09-1.15-.13-.66-.06-1.33-.11-2-.15-.33-.02-.65-.05-.98-.07-1-.05-2-.08-3.01-.08h0c-6.34,0-12.46,.96-18.21,2.75-.96,.3-1.91,.62-2.85,.96-1.88,.69-3.71,1.46-5.49,2.32-2.68,1.29-5.25,2.77-7.69,4.42-1.63,1.1-3.2,2.28-4.71,3.53-1.51,1.25-2.96,2.57-4.35,3.95-11.08,11.08-17.94,26.39-17.94,43.3h0c0,5.29,.67,10.41,1.93,15.31,6.8,26.42,30.78,45.94,59.31,45.94s52.52-19.52,59.31-45.94c1.26-4.89,1.93-10.02,1.93-15.31h0c0-7.53-1.36-14.73-3.85-21.39l-21.34,21.34c0,19.91-16.14,36.06-36.06,36.06s-36.06-16.14-36.06-36.06,16.14-36.06,36.06-36.06h0c5.37,0,10.45,1.2,15.02,3.31l-37.9,37.9c1.97,8.88,8.95,15.86,17.83,17.83L241.42,24.45Z"/><path d="M209.43,74.54c8.44,14.54,13.3,31.42,13.3,49.45,0,54.54-44.21,98.75-98.75,98.75v25.24c68.48,0,123.99-55.51,123.99-123.99,0-25.03-7.45-48.3-20.2-67.79l-18.34,18.34Z"/></g></g></g></svg>