<?xml version="1.0" encoding="UTF-8"?>
<svg id="Layer_1" data-name="Layer 1" xmlns="http://www.w3.org/2000/svg" viewBox="0 0 1416.33 284.67">
  <defs>
    <style>
      .cls-1 {
        fill: #3d5567;
      }

      .cls-1, .cls-2, .cls-3, .cls-4 {
        fill-rule: evenodd;
        stroke-width: 0px;
      }

      .cls-2 {
        fill: #f35e29;
      }

      .cls-3 {
        fill: #efca06;
      }

      .cls-4 {
        fill: #16a5a6;
      }
    </style>
  </defs>
  <path class="cls-4" d="M256.82,69.54h53.68c9.5,0,18.42,1.91,26.75,5.74,8.33,3.83,15.61,8.92,21.84,15.27,6.23,6.36,11.13,13.76,14.71,22.21,3.58,8.45,5.37,17.31,5.37,26.56s-1.76,17.93-5.28,26.38c-3.52,8.45-8.39,15.89-14.62,22.3-6.23,6.42-13.51,11.54-21.84,15.36-8.33,3.83-17.31,5.74-26.93,5.74h-53.68V69.54Z"/>
  <path class="cls-3" d="M163.02,69.54h53.68c9.5,0,18.42,1.91,26.75,5.74,8.33,3.83,15.61,8.92,21.84,15.27,6.23,6.36,11.13,13.76,14.71,22.21,3.58,8.45,5.37,17.31,5.37,26.56s-1.76,17.93-5.28,26.38c-3.52,8.45-8.39,15.89-14.62,22.3-6.23,6.42-13.51,11.54-21.84,15.36-8.33,3.83-17.31,5.74-26.93,5.74h-53.68V69.54Z"/>
  <path class="cls-2" d="M69.21,69.54h53.68c9.5,0,18.42,1.91,26.75,5.74,8.33,3.83,15.61,8.92,21.84,15.27,6.23,6.36,11.13,13.76,14.71,22.21,3.58,8.45,5.37,17.31,5.37,26.56s-1.76,17.93-5.28,26.38c-3.52,8.45-8.39,15.89-14.62,22.3-6.23,6.42-13.51,11.54-21.84,15.36-8.33,3.83-17.31,5.74-26.93,5.74h-53.68V69.54Z"/>
  <path class="cls-1" d="M1306.05,100.2h43.04v-30.66h-79.24v139.27h79.24v-30.66h-43.04v-24.01h40.63v-30.66h-40.63v-23.27ZM1124.67,69.54h53.56c9.48,0,18.38,1.91,26.69,5.73,8.31,3.82,15.58,8.9,21.8,15.24,6.22,6.34,11.11,13.73,14.68,22.16,3.57,8.43,5.36,17.27,5.36,26.51s-1.75,17.88-5.26,26.32c-3.51,8.43-8.37,15.85-14.59,22.26-6.22,6.4-13.48,11.51-21.8,15.33-8.31,3.82-17.27,5.73-26.87,5.73h-53.56V69.54ZM1169.18,178.14h-8.31v-77.94h8.31c6.16,0,11.7.99,16.62,2.96,4.93,1.97,9.08,4.68,12.47,8.13,3.39,3.45,6,7.57,7.85,12.38s2.77,9.97,2.77,15.52-.89,10.87-2.68,15.61c-1.79,4.74-4.37,8.84-7.76,12.28s-7.54,6.16-12.47,8.13c-4.93,1.97-10.53,2.96-16.81,2.96ZM1095.48,208.8h-36.2V69.54h36.2v139.27ZM944.77,184.61h51.72l8.31,24.2h38.6l-53.01-139.27h-39.53l-53.01,139.27h38.6l8.31-24.2ZM986.88,157.09l-16.25-46.36-16.25,46.36h32.51ZM849.09,178.14v-108.61h-36.2v139.27h79.61v-30.66h-43.41ZM786.85,100.2h-43.04v23.27h40.63v30.66h-40.63v24.01h43.04v30.66h-79.24V69.54h79.24v30.66ZM615.99,69.54h-53.56v139.27h53.56c9.6,0,18.56-1.91,26.88-5.73,8.31-3.82,15.57-8.93,21.79-15.33,6.22-6.4,11.08-13.82,14.59-22.26,3.51-8.43,5.26-17.21,5.26-26.32s-1.79-18.07-5.36-26.51c-3.57-8.43-8.46-15.82-14.68-22.16-6.22-6.34-13.48-11.42-21.79-15.24-8.31-3.82-17.21-5.73-26.69-5.73ZM598.63,178.14h8.31c6.28,0,11.88-.99,16.81-2.96,4.93-1.97,9.08-4.68,12.47-8.13,3.39-3.45,5.97-7.54,7.76-12.28,1.79-4.74,2.68-9.94,2.68-15.61s-.92-10.71-2.77-15.52-4.46-8.93-7.85-12.38c-3.39-3.45-7.54-6.16-12.47-8.13-4.93-1.97-10.47-2.96-16.62-2.96h-8.31v77.94ZM473.77,110.73l16.25,46.36h-32.51l16.25-46.36ZM439.6,208.8l8.31-24.2h51.72l8.31,24.2h38.6l-53.01-139.27h-39.53l-53.01,139.27h38.6Z"/>
</svg>